<svg xmlns:dc="http://purl.org/dc/elements/1.1/" xmlns:cc="http://creativecommons.org/ns#" xmlns:rdf="http://www.w3.org/1999/02/22-rdf-syntax-ns#" xmlns:svg="http://www.w3.org/2000/svg" xmlns="http://www.w3.org/2000/svg" xmlns:xlink="http://www.w3.org/1999/xlink" xmlns:sodipodi="http://sodipodi.sourceforge.net/DTD/sodipodi-0.dtd" xmlns:inkscape="http://www.inkscape.org/namespaces/inkscape" id="svg3355" inkscape:version="0.91 r13725" xml:space="preserve" width="765" height="450" viewBox="0 0 765 450" sodipodi:docname="3DSlicerLogo-HorizontalF.svg"> <metadata id="metadata3361"></metadata> <defs id="defs3359"> <clipPath clipPathUnits="userSpaceOnUse" id="clipPath3369"> <path d="M 0,360 612,360 612,0 0,0 0,360 Z" id="path3371" inkscape:connector-curvature="0"></path> </clipPath> <clipPath clipPathUnits="userSpaceOnUse" id="clipPath3377"> <path d="m 1.00928,359.991 390.00072,0 0,-393.0008 -390.00072,0 0,393.0008 z" id="path3379" inkscape:connector-curvature="0"></path> </clipPath> <clipPath clipPathUnits="userSpaceOnUse" id="clipPath3381"> <path d="m 1.009,-33.009 390,0 0,393 -390,0 0,-393 z" id="path3383" inkscape:connector-curvature="0"></path> </clipPath> <mask maskUnits="userSpaceOnUse" x="0" y="0" width="1" height="1" id="mask3385"> <image width="1" height="1" preserveAspectRatio="none" id="image3387"></image> </mask> <clipPath clipPathUnits="userSpaceOnUse" id="clipPath3407"> <path d="m 153.01,85.968 c 0.113,0 0.225,0.004 0.335,0.008 l 0.362,0.003 c -50.145,0.71 -90.579,42.777 -90.579,94.558 0,51.629 40.194,93.592 90.132,94.551 l 0.042,-0.06 c -0.095,0.003 -0.194,0.003 -0.292,0.003 -17.151,0 -31.053,-42.323 -31.053,-94.529 0,-11.668 0.698,-22.843 1.97,-33.164 l 0.031,-0.025 c 10.191,-1.276 21.222,-1.974 32.738,-1.974 51.714,0 93.632,14.033 93.632,31.349 0,0.114 0,0.226 -0.004,0.338 l -0.004,0.368 c -0.713,-50.626 -42.376,-91.451 -93.659,-91.451 -0.815,0 -1.621,0.01 -2.432,0.033 l -1.219,-0.008 z" id="path3409" inkscape:connector-curvature="0"></path> </clipPath> <linearGradient x1="0" y1="0" x2="1" y2="0" gradientUnits="userSpaceOnUse" gradientTransform="matrix(94.682114,-163.99445,166.37236,93.328842,102.96875,259.06738)" spreadMethod="pad" id="linearGradient3415"> <stop style="stop-opacity:1;stop-color:#ffffff" offset="0" id="stop3417"></stop> <stop style="stop-opacity:1;stop-color:#a8b5d7" offset="0.36626479" id="stop3419"></stop> <stop style="stop-opacity:1;stop-color:#a8b5d7" offset="0.38764" id="stop3421"></stop> <stop style="stop-opacity:1;stop-color:#9197bf" offset="0.64262118" id="stop3423"></stop> <stop style="stop-opacity:1;stop-color:#9197bf" offset="0.657303" id="stop3425"></stop> <stop style="stop-opacity:1;stop-color:#2a0d10" offset="0.932584" id="stop3427"></stop> <stop style="stop-opacity:1;stop-color:#2a0d10" offset="1" id="stop3429"></stop> </linearGradient> <clipPath clipPathUnits="userSpaceOnUse" id="clipPath3439"> <path d="m 60,278 193,0 0,-195 -193,0 0,195 z" id="path3441" inkscape:connector-curvature="0"></path> </clipPath> <clipPath clipPathUnits="userSpaceOnUse" id="clipPath3443"> <path d="m 59,279 195,0 0,-197 -195,0 0,197 z" id="path3445" inkscape:connector-curvature="0"></path> </clipPath> <clipPath clipPathUnits="userSpaceOnUse" id="clipPath3447"> <path d="m 60,83 193,0 0,195 -193,0 0,-195 z" id="path3449" inkscape:connector-curvature="0"></path> </clipPath> <mask maskUnits="userSpaceOnUse" x="0" y="0" width="1" height="1" id="mask3451"> <g id="g3453"> <g clip-path="url(#clipPath3439)" id="g3455" style="opacity:0.52000397"> <g id="g3457"> <g id="g3459"></g> <g id="g3461"> <g clip-path="url(#clipPath3443)" id="g3463"> <g id="g3465"> <g clip-path="url(#clipPath3447)" id="g3467"> <g id="g3469"> <g transform="matrix(193,0,0,195,60,83)" id="g3471"> <image width="1" height="1" preserveAspectRatio="none" transform="matrix(1,0,0,-1,0,1)" id="image3473"></image> </g> </g> </g> </g> </g> </g> </g> </g> </g> </mask> <clipPath clipPathUnits="userSpaceOnUse" id="clipPath3479"> <path d="m 62.7539,275.466 187.9481,0 0,-189.8967 -187.9481,0 0,189.8967 z" id="path3481" inkscape:connector-curvature="0"></path> </clipPath> <clipPath clipPathUnits="userSpaceOnUse" id="clipPath3495"> <path d="m 60,278 193,0 0,-195 -193,0 0,195 z" id="path3497" inkscape:connector-curvature="0"></path> </clipPath> <clipPath clipPathUnits="userSpaceOnUse" id="clipPath3499"> <path d="m 59,279 195,0 0,-197 -195,0 0,197 z" id="path3501" inkscape:connector-curvature="0"></path> </clipPath> <clipPath clipPathUnits="userSpaceOnUse" id="clipPath3503"> <path d="m 60,83 193,0 0,195 -193,0 0,-195 z" id="path3505" inkscape:connector-curvature="0"></path> </clipPath> <mask maskUnits="userSpaceOnUse" x="0" y="0" width="1" height="1" id="mask3507"> <g id="g3509"> <g clip-path="url(#clipPath3495)" id="g3511" style="opacity:0.32000703"> <g id="g3513"> <g id="g3515"></g> <g id="g3517"> <g clip-path="url(#clipPath3499)" id="g3519"> <g id="g3521"> <g clip-path="url(#clipPath3503)" id="g3523"> <g id="g3525"> <g transform="matrix(193,0,0,195,60,83)" id="g3527"> <image width="1" height="1" preserveAspectRatio="none" transform="matrix(1,0,0,-1,0,1)" id="image3529"></image> </g> </g> </g> </g> </g> </g> </g> </g> </g> </mask> <clipPath clipPathUnits="userSpaceOnUse" id="clipPath3535"> <path d="m 60,278 193,0 0,-195 -193,0 0,195 z" id="path3537" inkscape:connector-curvature="0"></path> </clipPath> <clipPath clipPathUnits="userSpaceOnUse" id="clipPath3539"> <path d="m 60,278 193,0 0,-195 -193,0 0,195 z" id="path3541" inkscape:connector-curvature="0"></path> </clipPath> <clipPath clipPathUnits="userSpaceOnUse" id="clipPath3543"> <path d="m 59,279 195,0 0,-197 -195,0 0,197 z" id="path3545" inkscape:connector-curvature="0"></path> </clipPath> <clipPath clipPathUnits="userSpaceOnUse" id="clipPath3547"> <path d="m 60,83 193,0 0,195 -193,0 0,-195 z" id="path3549" inkscape:connector-curvature="0"></path> </clipPath> <mask maskUnits="userSpaceOnUse" x="0" y="0" width="1" height="1" id="mask3551"> <g id="g3553"> <g clip-path="url(#clipPath3539)" id="g3555" style="opacity:0.52000397"> <g id="g3557"> <g id="g3559"></g> <g id="g3561"> <g clip-path="url(#clipPath3543)" id="g3563"> <g id="g3565"> <g clip-path="url(#clipPath3547)" id="g3567"> <g id="g3569"> <g transform="matrix(193,0,0,195,60,83)" id="g3571"> <image width="1" height="1" preserveAspectRatio="none" transform="matrix(1,0,0,-1,0,1)" id="image3573"></image> </g> </g> </g> </g> </g> </g> </g> </g> </g> </mask> <clipPath clipPathUnits="userSpaceOnUse" id="clipPath3575"> <path d="m 62.7539,275.466 187.9481,0 0,-189.8967 -187.9481,0 0,189.8967 z" id="path3577" inkscape:connector-curvature="0"></path> </clipPath> </defs> <g id="g3363" inkscape:groupmode="layer" inkscape:label="3DSlicerLogo-HorizontalF" transform="matrix(1.25,0,0,-1.25,0,450)"> <g id="g3365"> <g id="g3367" clip-path="url(#clipPath3369)"><g id="g3373"><g id="g3375"></g><g id="g3389"><g clip-path="url(#clipPath3377)" id="g3391" style="opacity:0.619995"><g id="g3393"><g clip-path="url(#clipPath3381)" id="g3395"><g id="g3397"><g transform="matrix(390,0,0,393,1.0092773,-33.009277)" id="g3399"><image width="1" height="1" preserveAspectRatio="none" transform="matrix(1,0,0,-1,0,1)" mask="url(#mask3385)" id="image3401"></image></g></g></g></g></g></g></g><g id="g3403"><g id="g3405" clip-path="url(#clipPath3407)"><g id="g3411"><g id="g3413"><path d="m 153.01,85.968 c 0.113,0 0.225,0.004 0.335,0.008 l 0.362,0.003 c -50.145,0.71 -90.579,42.777 -90.579,94.558 0,51.629 40.194,93.592 90.132,94.551 l 0.042,-0.06 c -0.095,0.003 -0.194,0.003 -0.292,0.003 -17.151,0 -31.053,-42.323 -31.053,-94.529 0,-11.668 0.698,-22.843 1.97,-33.164 l 0.031,-0.025 c 10.191,-1.276 21.222,-1.974 32.738,-1.974 51.714,0 93.632,14.033 93.632,31.349 0,0.114 0,0.226 -0.004,0.338 l -0.004,0.368 c -0.713,-50.626 -42.376,-91.451 -93.659,-91.451 -0.815,0 -1.621,0.01 -2.432,0.033 l -1.219,-0.008 z" style="fill:url(#linearGradient3415);stroke:none" id="path3431" inkscape:connector-curvature="0"></path></g></g></g></g><path d="m 153.01,85.968 c 0.113,0 0.225,0.004 0.335,0.008 l 0.362,0.003 c -50.145,0.71 -90.579,42.777 -90.579,94.558 0,51.629 40.194,93.592 90.132,94.551 l 0.042,-0.06 c -0.095,0.003 -0.194,0.003 -0.292,0.003 -17.151,0 -31.053,-42.323 -31.053,-94.529 0,-11.668 0.698,-22.843 1.97,-33.164 l 0.031,-0.025 c 10.191,-1.276 21.222,-1.974 32.738,-1.974 51.714,0 93.632,14.033 93.632,31.349 0,0.114 0,0.226 -0.004,0.338 l -0.004,0.368 c -0.713,-50.626 -42.376,-91.451 -93.659,-91.451 -0.815,0 -1.621,0.01 -2.432,0.033 l -1.219,-0.008 z" style="fill:none;stroke:#000000;stroke-width:0.74800003;stroke-linecap:butt;stroke-linejoin:miter;stroke-miterlimit:4;stroke-dasharray:none;stroke-opacity:1" id="path3433" inkscape:connector-curvature="0"></path><g id="g3435"><g id="g3437"></g><g id="g3475" mask="url(#mask3451)"><g id="g3477"></g><g id="g3483"><g clip-path="url(#clipPath3479)" id="g3485" style="opacity:0.52000397"><path d="m 153.01,85.968 c 0.113,0 0.225,0.004 0.335,0.008 l 0.362,0.003 c -50.145,0.71 -90.579,42.777 -90.579,94.558 0,51.629 40.194,93.592 90.132,94.551 l 0.042,-0.06 c -0.095,0.003 -0.194,0.003 -0.292,0.003 -17.151,0 -31.053,-42.323 -31.053,-94.529 0,-11.668 0.698,-22.843 1.97,-33.164 l 0.031,-0.025 c 10.191,-1.276 21.222,-1.974 32.738,-1.974 51.714,0 93.632,14.033 93.632,31.349 0,0.114 0,0.226 -0.004,0.338 l -0.004,0.368 c -0.713,-50.626 -42.376,-91.451 -93.659,-91.451 -0.815,0 -1.621,0.01 -2.432,0.033 l -1.219,-0.008 z" style="fill:#fafabe;fill-opacity:1;fill-rule:nonzero;stroke:none" id="path3487" inkscape:connector-curvature="0"></path><path d="m 153.01,85.968 c 0.113,0 0.225,0.004 0.335,0.008 l 0.362,0.003 c -50.145,0.71 -90.579,42.777 -90.579,94.558 0,51.629 40.194,93.592 90.132,94.551 l 0.042,-0.06 c -0.095,0.003 -0.194,0.003 -0.292,0.003 -17.151,0 -31.053,-42.323 -31.053,-94.529 0,-11.668 0.698,-22.843 1.97,-33.164 l 0.031,-0.025 c 10.191,-1.276 21.222,-1.974 32.738,-1.974 51.714,0 93.632,14.033 93.632,31.349 0,0.114 0,0.226 -0.004,0.338 l -0.004,0.368 c -0.713,-50.626 -42.376,-91.451 -93.659,-91.451 -0.815,0 -1.621,0.01 -2.432,0.033 l -1.219,-0.008 z" style="fill:none;stroke:#fafabe;stroke-width:0.74800003;stroke-linecap:butt;stroke-linejoin:miter;stroke-miterlimit:4;stroke-dasharray:none;stroke-opacity:1" id="path3489" inkscape:connector-curvature="0"></path></g></g></g></g><g id="g3491"><g id="g3493"></g><g id="g3531" mask="url(#mask3507)"><g id="g3533"></g><g id="g3579"><g clip-path="url(#clipPath3535)" id="g3581" style="opacity:0.32000703"><path d="m 153.01,85.968 c 0.113,0 0.225,0.004 0.335,0.008 l 0.362,0.003 c -50.145,0.71 -90.579,42.777 -90.579,94.558 0,51.629 40.194,93.592 90.132,94.551 l 0.042,-0.06 c -0.095,0.003 -0.194,0.003 -0.292,0.003 -17.151,0 -31.053,-42.323 -31.053,-94.529 0,-11.668 0.698,-22.843 1.97,-33.164 l 0.031,-0.025 c 10.191,-1.276 21.222,-1.974 32.738,-1.974 51.714,0 93.632,14.033 93.632,31.349 0,0.114 0,0.226 -0.004,0.338 l -0.004,0.368 c -0.713,-50.626 -42.376,-91.451 -93.659,-91.451 -0.815,0 -1.621,0.01 -2.432,0.033 l -1.219,-0.008 z" style="fill:#fafabe;fill-opacity:1;fill-rule:nonzero;stroke:none" id="path3583" inkscape:connector-curvature="0"></path><path d="m 153.01,85.968 c 0.113,0 0.225,0.004 0.335,0.008 l 0.362,0.003 c -50.145,0.71 -90.579,42.777 -90.579,94.558 0,51.629 40.194,93.592 90.132,94.551 l 0.042,-0.06 c -0.095,0.003 -0.194,0.003 -0.292,0.003 -17.151,0 -31.053,-42.323 -31.053,-94.529 0,-11.668 0.698,-22.843 1.97,-33.164 l 0.031,-0.025 c 10.191,-1.276 21.222,-1.974 32.738,-1.974 51.714,0 93.632,14.033 93.632,31.349 0,0.114 0,0.226 -0.004,0.338 l -0.004,0.368 c -0.713,-50.626 -42.376,-91.451 -93.659,-91.451 -0.815,0 -1.621,0.01 -2.432,0.033 l -1.219,-0.008 z" style="fill:none;stroke:#fafabe;stroke-width:0.74800003;stroke-linecap:butt;stroke-linejoin:miter;stroke-miterlimit:4;stroke-dasharray:none;stroke-opacity:1" id="path3585" inkscape:connector-curvature="0"></path><g id="g3587"><g id="g3589"></g><g mask="url(#mask3551)" id="g3591"><g id="g3593"></g><g id="g3595"><g clip-path="url(#clipPath3575)" id="g3597" style="opacity:0.52000397"><path d="m 153.01,85.968 c 0.113,0 0.225,0.004 0.335,0.008 l 0.362,0.003 c -50.145,0.71 -90.579,42.777 -90.579,94.558 0,51.629 40.194,93.592 90.132,94.551 l 0.042,-0.06 c -0.095,0.003 -0.194,0.003 -0.292,0.003 -17.151,0 -31.053,-42.323 -31.053,-94.529 0,-11.668 0.698,-22.843 1.97,-33.164 l 0.031,-0.025 c 10.191,-1.276 21.222,-1.974 32.738,-1.974 51.714,0 93.632,14.033 93.632,31.349 0,0.114 0,0.226 -0.004,0.338 l -0.004,0.368 c -0.713,-50.626 -42.376,-91.451 -93.659,-91.451 -0.815,0 -1.621,0.01 -2.432,0.033 l -1.219,-0.008 z" style="fill:#fafabe;fill-opacity:1;fill-rule:nonzero;stroke:none" id="path3599" inkscape:connector-curvature="0"></path><path d="m 153.01,85.968 c 0.113,0 0.225,0.004 0.335,0.008 l 0.362,0.003 c -50.145,0.71 -90.579,42.777 -90.579,94.558 0,51.629 40.194,93.592 90.132,94.551 l 0.042,-0.06 c -0.095,0.003 -0.194,0.003 -0.292,0.003 -17.151,0 -31.053,-42.323 -31.053,-94.529 0,-11.668 0.698,-22.843 1.97,-33.164 l 0.031,-0.025 c 10.191,-1.276 21.222,-1.974 32.738,-1.974 51.714,0 93.632,14.033 93.632,31.349 0,0.114 0,0.226 -0.004,0.338 l -0.004,0.368 c -0.713,-50.626 -42.376,-91.451 -93.659,-91.451 -0.815,0 -1.621,0.01 -2.432,0.033 l -1.219,-0.008 z" style="fill:none;stroke:#fafabe;stroke-width:0.74800003;stroke-linecap:butt;stroke-linejoin:miter;stroke-miterlimit:4;stroke-dasharray:none;stroke-opacity:1" id="path3601" inkscape:connector-curvature="0"></path></g></g></g></g></g></g></g></g><path d="m 124.769,146.742 58.201,59.241 0.282,0.239 c 38.968,-3.798 67.463,-15.909 67.463,-30.267 0,-17.394 -41.864,-31.496 -93.508,-31.496 -11.517,0 -22.55,0.705 -32.737,1.98 l 0.299,0.303 z" style="fill:#afb8d1;fill-opacity:1;fill-rule:nonzero;stroke:none" id="path3603" inkscape:connector-curvature="0"></path><path d="m 124.769,146.742 58.201,59.241 0.282,0.239 c 38.968,-3.798 67.463,-15.909 67.463,-30.267 0,-17.394 -41.864,-31.496 -93.508,-31.496 -11.517,0 -22.55,0.705 -32.737,1.98 l 0.299,0.303 z" style="fill:none;stroke:#000000;stroke-width:0.935;stroke-linecap:round;stroke-linejoin:round;stroke-miterlimit:4;stroke-dasharray:none;stroke-opacity:1" id="path3605" inkscape:connector-curvature="0"></path><path d="m 124.646,146.806 58.919,59.287 0.237,0.281 c -3.774,39.701 -15.823,68.729 -30.097,68.729 -17.3,0 -31.329,-42.648 -31.329,-95.257 0,-11.732 0.702,-22.97 1.974,-33.347 l 0.296,0.307 z" style="fill:#44455b;fill-opacity:1;fill-rule:nonzero;stroke:none" id="path3607" inkscape:connector-curvature="0"></path><path d="m 124.646,146.806 58.919,59.287 0.237,0.281 c -3.774,39.701 -15.823,68.729 -30.097,68.729 -17.3,0 -31.329,-42.648 -31.329,-95.257 0,-11.732 0.702,-22.97 1.974,-33.347 l 0.296,0.307 z" style="fill:none;stroke:#000000;stroke-width:0.935;stroke-linecap:round;stroke-linejoin:round;stroke-miterlimit:4;stroke-dasharray:none;stroke-opacity:1" id="path3609" inkscape:connector-curvature="0"></path><path d="m 166.228,268.167 c 3.587,0.585 7.277,0.892 11.03,0.892 37.527,0 67.949,-30.426 67.949,-67.942 0,-4.529 -0.448,-8.948 -1.286,-13.226 l -0.354,-0.563 -78.336,0 0,80.42 0.997,0.419 z" style="fill:#717f98;fill-opacity:1;fill-rule:nonzero;stroke:none" id="path3611" inkscape:connector-curvature="0"></path><path d="m 166.228,268.167 c 3.587,0.585 7.277,0.892 11.03,0.892 37.527,0 67.949,-30.426 67.949,-67.942 0,-4.529 -0.448,-8.948 -1.286,-13.226 l -0.354,-0.563 -78.336,0 0,80.42 0.997,0.419 z" style="fill:none;stroke:#000000;stroke-width:0.935;stroke-linecap:round;stroke-linejoin:round;stroke-miterlimit:4;stroke-dasharray:none;stroke-opacity:1" id="path3613" inkscape:connector-curvature="0"></path><path d="m 166.168,248.753 c 2.717,0.444 5.501,0.673 8.338,0.673 28.365,0 51.354,-23.082 51.354,-51.538 0,-3.432 -0.334,-6.786 -0.973,-10.032 l -0.264,-0.426 -59.205,0 0,61.003 0.75,0.32 z" style="fill:#dde6e8;fill-opacity:1;fill-rule:nonzero;stroke:none" id="path3615" inkscape:connector-curvature="0"></path><path d="m 166.168,248.753 c 2.717,0.444 5.501,0.673 8.338,0.673 28.365,0 51.354,-23.082 51.354,-51.538 0,-3.432 -0.334,-6.786 -0.973,-10.032 l -0.264,-0.426 -59.205,0 0,61.003 0.75,0.32 z" style="fill:none;stroke:#000000;stroke-width:0.46799999;stroke-linecap:round;stroke-linejoin:round;stroke-miterlimit:4;stroke-dasharray:none;stroke-opacity:1" id="path3617" inkscape:connector-curvature="0"></path><path d="m 138.245,160.834 26.619,26.691 0,57.265 0.032,3.212 -0.095,0.075 c -2.407,3.03 -5.029,4.693 -7.77,4.693 -11.816,0 -21.39,-30.929 -21.39,-69.086 0,-8.507 0.475,-16.658 1.349,-24.189 l 0.2,0.223 0.727,0.778" style="fill:#bcc9cc;fill-opacity:1;fill-rule:nonzero;stroke:none" id="path3619" inkscape:connector-curvature="0"></path><path d="m 138.245,160.834 26.619,26.691 0,57.265 0.032,3.212 -0.095,0.075 c -2.407,3.03 -5.029,4.693 -7.77,4.693 -11.816,0 -21.39,-30.929 -21.39,-69.086 0,-8.507 0.475,-16.658 1.349,-24.189 l 0.2,0.223 0.727,0.778" style="fill:none;stroke:#000000;stroke-width:0.46799999;stroke-linecap:round;stroke-linejoin:round;stroke-miterlimit:4;stroke-dasharray:none;stroke-opacity:1" id="path3621" inkscape:connector-curvature="0"></path><path d="m 138.241,160.757 26.408,26.147 56.662,0 3.182,0.032 0.067,-0.095 c 2.999,-2.364 4.648,-4.937 4.648,-7.629 0,-11.605 -30.609,-21.01 -68.361,-21.01 -8.415,0 -16.481,0.472 -23.931,1.325 l 0.223,0.201 0.767,0.711" style="fill:#ffffff;fill-opacity:1;fill-rule:nonzero;stroke:none" id="path3623" inkscape:connector-curvature="0"></path><path d="m 138.241,160.757 26.408,26.147 56.662,0 3.182,0.032 0.067,-0.095 c 2.999,-2.364 4.648,-4.937 4.648,-7.629 0,-11.605 -30.609,-21.01 -68.361,-21.01 -8.415,0 -16.481,0.472 -23.931,1.325 l 0.223,0.201 0.767,0.711" style="fill:none;stroke:#000000;stroke-width:0.46799999;stroke-linecap:round;stroke-linejoin:round;stroke-miterlimit:4;stroke-dasharray:none;stroke-opacity:1" id="path3625" inkscape:connector-curvature="0"></path><path d="M 166.146,188.563 105.305,127.846" style="fill:none;stroke:#000000;stroke-width:0.62300003;stroke-linecap:butt;stroke-linejoin:miter;stroke-miterlimit:4;stroke-dasharray:none;stroke-opacity:1" id="path3627" inkscape:connector-curvature="0"></path><path d="m 185.226,268.709 0,55.704 -79.969,-83.596 0,-219.539 56.905,59.489 5.289,5.546" style="fill:none;stroke:#000000;stroke-width:0.62300003;stroke-linecap:round;stroke-linejoin:miter;stroke-miterlimit:4;stroke-dasharray:none;stroke-opacity:1" id="path3629" inkscape:connector-curvature="0"></path><path d="m 244.96,207.481 56.024,0 -83.01,-79.796 -217.974,0 60.46,58.117 2.91,2.778" style="fill:none;stroke:#000000;stroke-width:0.62300003;stroke-linecap:butt;stroke-linejoin:miter;stroke-miterlimit:4;stroke-dasharray:none;stroke-opacity:1" id="path3631" inkscape:connector-curvature="0"></path><path d="m 176.416,187.257 -11.129,0 -5.825,-5.981 11.132,0 5.822,5.981 z" style="fill:#000000;fill-opacity:1;fill-rule:nonzero;stroke:none" id="path3633" inkscape:connector-curvature="0"></path><path d="m 176.416,187.257 -11.129,0 -5.825,-5.981 11.132,0 5.822,5.981 z" style="fill:none;stroke:#404040;stroke-width:0.46799999;stroke-linecap:butt;stroke-linejoin:miter;stroke-miterlimit:4;stroke-dasharray:none;stroke-opacity:1" id="path3635" inkscape:connector-curvature="0"></path><path d="m 187.813,187.257 -11.133,0 -5.825,-5.981 11.129,0 5.829,5.981 z" style="fill:#242424;fill-opacity:1;fill-rule:nonzero;stroke:none" id="path3637" inkscape:connector-curvature="0"></path><path d="m 187.813,187.257 -11.133,0 -5.825,-5.981 11.129,0 5.829,5.981 z" style="fill:none;stroke:#404040;stroke-width:0.46799999;stroke-linecap:butt;stroke-linejoin:miter;stroke-miterlimit:4;stroke-dasharray:none;stroke-opacity:1" id="path3639" inkscape:connector-curvature="0"></path><path d="m 199.202,187.257 -11.13,0 -5.828,-5.981 11.132,0 5.826,5.981 z" style="fill:#535252;fill-opacity:1;fill-rule:nonzero;stroke:none" id="path3641" inkscape:connector-curvature="0"></path><path d="m 199.202,187.257 -11.13,0 -5.828,-5.981 11.132,0 5.826,5.981 z" style="fill:none;stroke:#404040;stroke-width:0.46799999;stroke-linecap:butt;stroke-linejoin:miter;stroke-miterlimit:4;stroke-dasharray:none;stroke-opacity:1" id="path3643" inkscape:connector-curvature="0"></path><path d="m 170.542,181.224 -11.129,0 -5.826,-5.973 11.129,0 5.826,5.973 z" style="fill:#373737;fill-opacity:1;fill-rule:nonzero;stroke:none" id="path3645" inkscape:connector-curvature="0"></path><path d="m 170.542,181.224 -11.129,0 -5.826,-5.973 11.129,0 5.826,5.973 z" style="fill:none;stroke:#404040;stroke-width:0.46799999;stroke-linecap:butt;stroke-linejoin:miter;stroke-miterlimit:4;stroke-dasharray:none;stroke-opacity:1" id="path3647" inkscape:connector-curvature="0"></path><path d="m 181.934,181.224 -11.132,0 -5.821,-5.973 11.128,0 5.825,5.973 z" style="fill:#484848;fill-opacity:1;fill-rule:nonzero;stroke:none" id="path3649" inkscape:connector-curvature="0"></path><path d="m 181.934,181.224 -11.132,0 -5.821,-5.973 11.128,0 5.825,5.973 z" style="fill:none;stroke:#404040;stroke-width:0.46799999;stroke-linecap:butt;stroke-linejoin:miter;stroke-miterlimit:4;stroke-dasharray:none;stroke-opacity:1" id="path3651" inkscape:connector-curvature="0"></path><path d="m 193.324,181.224 -11.129,0 -5.825,-5.973 11.132,0 5.822,5.973 z" style="fill:#616160;fill-opacity:1;fill-rule:nonzero;stroke:none" id="path3653" inkscape:connector-curvature="0"></path><path d="m 193.324,181.224 -11.129,0 -5.825,-5.973 11.132,0 5.822,5.973 z" style="fill:none;stroke:#404040;stroke-width:0.46799999;stroke-linecap:round;stroke-linejoin:round;stroke-miterlimit:4;stroke-dasharray:none;stroke-opacity:1" id="path3655" inkscape:connector-curvature="0"></path><path d="m 198.765,175.194 -11.129,0 -5.829,-5.976 11.132,0 5.826,5.976 z" style="fill:#c2c2c2;fill-opacity:1;fill-rule:nonzero;stroke:none" id="path3657" inkscape:connector-curvature="0"></path><path d="m 198.765,175.194 -11.129,0 -5.829,-5.976 11.132,0 5.826,5.976 z" style="fill:none;stroke:#a1a1a1;stroke-width:0.46799999;stroke-linecap:round;stroke-linejoin:round;stroke-miterlimit:4;stroke-dasharray:none;stroke-opacity:1" id="path3659" inkscape:connector-curvature="0"></path><path d="m 158.778,169.235 -11.132,0 -5.825,-5.98 11.129,0 5.828,5.98 z" style="fill:#d9d9d9;fill-opacity:1;fill-rule:nonzero;stroke:none" id="path3661" inkscape:connector-curvature="0"></path><path d="m 158.778,169.235 -11.132,0 -5.825,-5.98 11.129,0 5.828,5.98 z" style="fill:none;stroke:#c7c7c7;stroke-width:0.46799999;stroke-linecap:round;stroke-linejoin:round;stroke-miterlimit:4;stroke-dasharray:none;stroke-opacity:1" id="path3663" inkscape:connector-curvature="0"></path><path d="m 170.168,169.235 -11.128,0 -5.829,-5.98 11.132,0 5.825,5.98 z" style="fill:#d9d9d9;fill-opacity:1;fill-rule:nonzero;stroke:none" id="path3665" inkscape:connector-curvature="0"></path><path d="m 170.168,169.235 -11.128,0 -5.829,-5.98 11.132,0 5.825,5.98 z" style="fill:none;stroke:#a8a8a8;stroke-width:0.46799999;stroke-linecap:round;stroke-linejoin:round;stroke-miterlimit:4;stroke-dasharray:none;stroke-opacity:1" id="path3667" inkscape:connector-curvature="0"></path><path d="m 181.561,169.235 -11.132,0 -5.825,-5.98 11.132,0 5.825,5.98 z" style="fill:#c2c2c2;fill-opacity:1;fill-rule:nonzero;stroke:none" id="path3669" inkscape:connector-curvature="0"></path><path d="m 181.561,169.235 -11.132,0 -5.825,-5.98 11.132,0 5.825,5.98 z" style="fill:none;stroke:#a8a8a8;stroke-width:0.46799999;stroke-linecap:round;stroke-linejoin:round;stroke-miterlimit:4;stroke-dasharray:none;stroke-opacity:1" id="path3671" inkscape:connector-curvature="0"></path><path d="m 221.885,187.257 -11.129,0 -5.824,-5.981 11.128,0 5.825,5.981 z" style="fill:#ebebeb;fill-opacity:1;fill-rule:nonzero;stroke:none" id="path3673" inkscape:connector-curvature="0"></path><path d="m 221.885,187.257 -11.129,0 -5.824,-5.981 11.128,0 5.825,5.981 z" style="fill:none;stroke:#adadad;stroke-width:0.46799999;stroke-linecap:round;stroke-linejoin:round;stroke-miterlimit:4;stroke-dasharray:none;stroke-opacity:1" id="path3675" inkscape:connector-curvature="0"></path><path d="m 216.011,181.227 -11.128,0 -5.829,-5.976 11.132,0 5.825,5.976 z" style="fill:#ebebeb;fill-opacity:1;fill-rule:nonzero;stroke:none" id="path3677" inkscape:connector-curvature="0"></path><path d="m 216.011,181.227 -11.128,0 -5.829,-5.976 11.132,0 5.825,5.976 z" style="fill:none;stroke:#adadad;stroke-width:0.46799999;stroke-linecap:round;stroke-linejoin:round;stroke-miterlimit:4;stroke-dasharray:none;stroke-opacity:1" id="path3679" inkscape:connector-curvature="0"></path><path d="m 210.594,187.257 -11.129,0 -5.827,-5.981 11.132,0 5.824,5.981 z" style="fill:#949494;fill-opacity:1;fill-rule:nonzero;stroke:none" id="path3681" inkscape:connector-curvature="0"></path><path d="m 210.594,187.257 -11.129,0 -5.827,-5.981 11.132,0 5.824,5.981 z" style="fill:none;stroke:#404040;stroke-width:0.46799999;stroke-linecap:round;stroke-linejoin:round;stroke-miterlimit:4;stroke-dasharray:none;stroke-opacity:1" id="path3683" inkscape:connector-curvature="0"></path><path d="m 204.72,181.227 -11.133,0 -5.824,-5.976 11.133,0 5.824,5.976 z" style="fill:#a0a09f;fill-opacity:1;fill-rule:nonzero;stroke:none" id="path3685" inkscape:connector-curvature="0"></path><path d="m 204.72,181.227 -11.133,0 -5.824,-5.976 11.133,0 5.824,5.976 z" style="fill:none;stroke:#404040;stroke-width:0.46799999;stroke-linecap:round;stroke-linejoin:round;stroke-miterlimit:4;stroke-dasharray:none;stroke-opacity:1" id="path3687" inkscape:connector-curvature="0"></path><path d="m 164.618,175.146 -11.129,0 -5.828,-5.978 11.132,0 5.825,5.978 z" style="fill:#747474;fill-opacity:1;fill-rule:nonzero;stroke:none" id="path3689" inkscape:connector-curvature="0"></path><path d="m 164.618,175.146 -11.129,0 -5.828,-5.978 11.132,0 5.825,5.978 z" style="fill:none;stroke:#404040;stroke-width:0.46799999;stroke-linecap:round;stroke-linejoin:round;stroke-miterlimit:4;stroke-dasharray:none;stroke-opacity:1" id="path3691" inkscape:connector-curvature="0"></path><path d="m 176.011,175.146 -11.133,0 -5.825,-5.978 11.129,0 5.829,5.978 z" style="fill:#747474;fill-opacity:1;fill-rule:nonzero;stroke:none" id="path3693" inkscape:connector-curvature="0"></path><path d="m 176.011,175.146 -11.133,0 -5.825,-5.978 11.129,0 5.829,5.978 z" style="fill:none;stroke:#404040;stroke-width:0.46799999;stroke-linecap:round;stroke-linejoin:round;stroke-miterlimit:4;stroke-dasharray:none;stroke-opacity:1" id="path3695" inkscape:connector-curvature="0"></path><path d="m 187.4,175.146 -11.129,0 -5.828,-5.978 11.132,0 5.825,5.978 z" style="fill:#a0a09f;fill-opacity:1;fill-rule:nonzero;stroke:none" id="path3697" inkscape:connector-curvature="0"></path><path d="m 187.4,175.146 -11.129,0 -5.828,-5.978 11.132,0 5.825,5.978 z" style="fill:none;stroke:#404040;stroke-width:0.46799999;stroke-linecap:round;stroke-linejoin:round;stroke-miterlimit:4;stroke-dasharray:none;stroke-opacity:1" id="path3699" inkscape:connector-curvature="0"></path><path d="m 164.928,199.002 0,-11.424 -5.825,-5.974 0,11.421 5.825,5.977 z" style="fill:#000000;fill-opacity:1;fill-rule:nonzero;stroke:none" id="path3701" inkscape:connector-curvature="0"></path><path d="m 164.928,199.002 0,-11.424 -5.825,-5.974 0,11.421 5.825,5.977 z" style="fill:none;stroke:#404040;stroke-width:0.46799999;stroke-linecap:butt;stroke-linejoin:miter;stroke-miterlimit:4;stroke-dasharray:none;stroke-opacity:1" id="path3703" inkscape:connector-curvature="0"></path><path d="m 164.928,210.695 0,-11.425 -5.825,-5.977 0,11.421 5.825,5.981 z" style="fill:#242424;fill-opacity:1;fill-rule:nonzero;stroke:none" id="path3705" inkscape:connector-curvature="0"></path><path d="m 164.928,210.695 0,-11.425 -5.825,-5.977 0,11.421 5.825,5.981 z" style="fill:none;stroke:#404040;stroke-width:0.46799999;stroke-linecap:butt;stroke-linejoin:miter;stroke-miterlimit:4;stroke-dasharray:none;stroke-opacity:1" id="path3707" inkscape:connector-curvature="0"></path><path d="m 164.928,222.384 0,-11.421 -5.825,-5.981 0,11.421 5.825,5.981 z" style="fill:#535252;fill-opacity:1;fill-rule:nonzero;stroke:none" id="path3709" inkscape:connector-curvature="0"></path><path d="m 164.928,222.384 0,-11.421 -5.825,-5.981 0,11.421 5.825,5.981 z" style="fill:none;stroke:#404040;stroke-width:0.46799999;stroke-linecap:round;stroke-linejoin:round;stroke-miterlimit:4;stroke-dasharray:none;stroke-opacity:1" id="path3711" inkscape:connector-curvature="0"></path><path d="m 159.053,192.973 0,-11.421 -5.824,-5.978 0,11.419 5.824,5.98 z" style="fill:#373737;fill-opacity:1;fill-rule:nonzero;stroke:none" id="path3713" inkscape:connector-curvature="0"></path><path d="m 159.053,192.973 0,-11.421 -5.824,-5.978 0,11.419 5.824,5.98 z" style="fill:none;stroke:#404040;stroke-width:0.46799999;stroke-linecap:butt;stroke-linejoin:miter;stroke-miterlimit:4;stroke-dasharray:none;stroke-opacity:1" id="path3715" inkscape:connector-curvature="0"></path><path d="m 159.053,204.665 0,-11.424 -5.824,-5.974 0,11.421 5.824,5.977 z" style="fill:#484848;fill-opacity:1;fill-rule:nonzero;stroke:none" id="path3717" inkscape:connector-curvature="0"></path><path d="m 159.053,204.665 0,-11.424 -5.824,-5.974 0,11.421 5.824,5.977 z" style="fill:none;stroke:#404040;stroke-width:0.46799999;stroke-linecap:round;stroke-linejoin:round;stroke-miterlimit:4;stroke-dasharray:none;stroke-opacity:1" id="path3719" inkscape:connector-curvature="0"></path><path d="m 159.053,216.354 0,-11.425 -5.824,-5.972 0,11.42 5.824,5.977 z" style="fill:#616160;fill-opacity:1;fill-rule:nonzero;stroke:none" id="path3721" inkscape:connector-curvature="0"></path><path d="m 159.053,216.354 0,-11.425 -5.824,-5.972 0,11.42 5.824,5.977 z" style="fill:none;stroke:#404040;stroke-width:0.46799999;stroke-linecap:round;stroke-linejoin:round;stroke-miterlimit:4;stroke-dasharray:none;stroke-opacity:1" id="path3723" inkscape:connector-curvature="0"></path><path d="m 153.247,222.059 0,-11.421 -5.83,-5.976 0,11.418 5.83,5.979 z" style="fill:#c2c2c2;fill-opacity:1;fill-rule:nonzero;stroke:none" id="path3725" inkscape:connector-curvature="0"></path><path d="m 153.247,222.059 0,-11.421 -5.83,-5.976 0,11.418 5.83,5.979 z" style="fill:none;stroke:#9c9c9c;stroke-width:0.46799999;stroke-linecap:round;stroke-linejoin:round;stroke-miterlimit:4;stroke-dasharray:none;stroke-opacity:1" id="path3727" inkscape:connector-curvature="0"></path><path d="m 147.212,180.882 0,-11.421 -5.827,-5.977 0,11.421 5.827,5.977 z" style="fill:#abb7b9;fill-opacity:1;fill-rule:nonzero;stroke:none" id="path3729" inkscape:connector-curvature="0"></path><path d="m 147.212,180.882 0,-11.421 -5.827,-5.977 0,11.421 5.827,5.977 z" style="fill:none;stroke:#9c9c9c;stroke-width:0.46799999;stroke-linecap:round;stroke-linejoin:round;stroke-miterlimit:4;stroke-dasharray:none;stroke-opacity:1" id="path3731" inkscape:connector-curvature="0"></path><path d="m 147.212,192.571 0,-11.421 -5.827,-5.976 0,11.42 5.827,5.977 z" style="fill:#abb7b9;fill-opacity:1;fill-rule:nonzero;stroke:none" id="path3733" inkscape:connector-curvature="0"></path><path d="m 147.212,192.571 0,-11.421 -5.827,-5.976 0,11.42 5.827,5.977 z" style="fill:none;stroke:#9c9c9c;stroke-width:0.46799999;stroke-linecap:round;stroke-linejoin:round;stroke-miterlimit:4;stroke-dasharray:none;stroke-opacity:1" id="path3735" inkscape:connector-curvature="0"></path><path d="m 147.212,204.26 0,-11.421 -5.827,-5.977 0,11.421 5.827,5.977 z" style="fill:#c2c2c2;fill-opacity:1;fill-rule:nonzero;stroke:none" id="path3737" inkscape:connector-curvature="0"></path><path d="m 147.212,204.26 0,-11.421 -5.827,-5.977 0,11.421 5.827,5.977 z" style="fill:none;stroke:#9c9c9c;stroke-width:0.46799999;stroke-linecap:round;stroke-linejoin:round;stroke-miterlimit:4;stroke-dasharray:none;stroke-opacity:1" id="path3739" inkscape:connector-curvature="0"></path><path d="m 164.931,245.818 0,-11.421 -5.828,-5.98 0,11.42 5.828,5.981 z" style="fill:#abb7b9;fill-opacity:1;fill-rule:nonzero;stroke:none" id="path3741" inkscape:connector-curvature="0"></path><path d="m 164.931,245.818 0,-11.421 -5.828,-5.98 0,11.42 5.828,5.981 z" style="fill:none;stroke:#9c9c9c;stroke-width:0.46799999;stroke-linecap:round;stroke-linejoin:round;stroke-miterlimit:4;stroke-dasharray:none;stroke-opacity:1" id="path3743" inkscape:connector-curvature="0"></path><path d="m 159.053,239.792 0,-11.424 -5.824,-5.977 0,11.421 5.824,5.98 z" style="fill:#abb7b9;fill-opacity:1;fill-rule:nonzero;stroke:none" id="path3745" inkscape:connector-curvature="0"></path><path d="m 159.053,239.792 0,-11.424 -5.824,-5.977 0,11.421 5.824,5.98 z" style="fill:none;stroke:#9c9c9c;stroke-width:0.46799999;stroke-linecap:round;stroke-linejoin:round;stroke-miterlimit:4;stroke-dasharray:none;stroke-opacity:1" id="path3747" inkscape:connector-curvature="0"></path><path d="m 164.931,234.073 0,-11.422 -5.828,-5.98 0,11.421 5.828,5.981 z" style="fill:#949494;fill-opacity:1;fill-rule:nonzero;stroke:none" id="path3749" inkscape:connector-curvature="0"></path><path d="m 164.931,234.073 0,-11.422 -5.828,-5.98 0,11.421 5.828,5.981 z" style="fill:none;stroke:#404040;stroke-width:0.46799999;stroke-linecap:round;stroke-linejoin:round;stroke-miterlimit:4;stroke-dasharray:none;stroke-opacity:1" id="path3751" inkscape:connector-curvature="0"></path><path d="m 159.053,228.046 0,-11.424 -5.824,-5.977 0,11.421 5.824,5.98 z" style="fill:#a0a09f;fill-opacity:1;fill-rule:nonzero;stroke:none" id="path3753" inkscape:connector-curvature="0"></path><path d="m 159.053,228.046 0,-11.424 -5.824,-5.977 0,11.421 5.824,5.98 z" style="fill:none;stroke:#404040;stroke-width:0.46799999;stroke-linecap:round;stroke-linejoin:round;stroke-miterlimit:4;stroke-dasharray:none;stroke-opacity:1" id="path3755" inkscape:connector-curvature="0"></path><path d="m 153.13,186.894 0,-11.421 -5.829,-5.98 0,11.424 5.829,5.977 z" style="fill:#747474;fill-opacity:1;fill-rule:nonzero;stroke:none" id="path3757" inkscape:connector-curvature="0"></path><path d="m 153.13,186.894 0,-11.421 -5.829,-5.98 0,11.424 5.829,5.977 z" style="fill:none;stroke:#404040;stroke-width:0.46799999;stroke-linecap:round;stroke-linejoin:round;stroke-miterlimit:4;stroke-dasharray:none;stroke-opacity:1" id="path3759" inkscape:connector-curvature="0"></path><path d="m 153.13,198.583 0,-11.421 -5.829,-5.98 0,11.424 5.829,5.977 z" style="fill:#747474;fill-opacity:1;fill-rule:nonzero;stroke:none" id="path3761" inkscape:connector-curvature="0"></path><path d="m 153.13,198.583 0,-11.421 -5.829,-5.98 0,11.424 5.829,5.977 z" style="fill:none;stroke:#404040;stroke-width:0.46799999;stroke-linecap:round;stroke-linejoin:round;stroke-miterlimit:4;stroke-dasharray:none;stroke-opacity:1" id="path3763" inkscape:connector-curvature="0"></path><path d="m 153.13,210.271 0,-11.42 -5.829,-5.977 0,11.421 5.829,5.976 z" style="fill:#a0a09f;fill-opacity:1;fill-rule:nonzero;stroke:none" id="path3765" inkscape:connector-curvature="0"></path><path d="m 153.13,210.271 0,-11.42 -5.829,-5.977 0,11.421 5.829,5.976 z" style="fill:none;stroke:#404040;stroke-width:0.46799999;stroke-linecap:round;stroke-linejoin:round;stroke-miterlimit:4;stroke-dasharray:none;stroke-opacity:1" id="path3767" inkscape:connector-curvature="0"></path><path d="m 124.646,146.806 40.218,40.218" style="fill:none;stroke:#000000;stroke-width:0.935;stroke-linecap:butt;stroke-linejoin:miter;stroke-miterlimit:4;stroke-dasharray:none;stroke-opacity:1" id="path3769" inkscape:connector-curvature="0"></path><path d="m 164.833,187.232 0,81.703" style="fill:none;stroke:#000000;stroke-width:0.935;stroke-linecap:butt;stroke-linejoin:miter;stroke-miterlimit:4;stroke-dasharray:none;stroke-opacity:1" id="path3771" inkscape:connector-curvature="0"></path><path d="m 164.607,187.045 79.902,0" style="fill:none;stroke:#000000;stroke-width:0.935;stroke-linecap:round;stroke-linejoin:miter;stroke-miterlimit:4;stroke-dasharray:none;stroke-opacity:1" id="path3773" inkscape:connector-curvature="0"></path><text transform="matrix(0.98195,0,0,-1,307.835,165.877)" style="font-variant:normal;font-weight:normal;font-stretch:normal;font-size:60px;font-family:Verdana;-inkscape-font-specification:Verdana;writing-mode:lr-tb;fill:#696969;fill-opacity:1;fill-rule:nonzero;stroke:none" id="text3775"><tspan x="0 39.66" y="0" sodipodi:role="line" id="tspan3777">3D</tspan></text> <text transform="matrix(0.98195,0,0,-1,393.6328,165.877)" style="font-variant:normal;font-weight:normal;font-stretch:normal;font-size:60px;font-family:Verdana;-inkscape-font-specification:Verdana;writing-mode:lr-tb;fill:#000000;fill-opacity:1;fill-rule:nonzero;stroke:none" id="text3779"><tspan x="0 50.040001 75.480003 100.92 141.17999 185.94" y="0" sodipodi:role="line" id="tspan3781">Slicer</tspan></text> <path d="m 244.474,145.277 13.291,-13.259 -78.46,-78.285 -150.814,150.526 78.442,78.278 13.812,-13.785" style="fill:none;stroke:#000000;stroke-width:0.62300003;stroke-linecap:round;stroke-linejoin:miter;stroke-miterlimit:4;stroke-dasharray:none;stroke-opacity:1" id="path3783" inkscape:connector-curvature="0"></path><path d="m 210.795,222.4 0,-34.618" style="fill:none;stroke:#393939;stroke-width:0.5;stroke-linecap:round;stroke-linejoin:round;stroke-miterlimit:4;stroke-dasharray:none;stroke-opacity:1" id="path3785" inkscape:connector-curvature="0"></path><path d="m 176.231,269.125 69.064,0 0,-70.226" style="fill:none;stroke:#393939;stroke-width:0.5;stroke-linecap:round;stroke-linejoin:round;stroke-miterlimit:4;stroke-dasharray:none;stroke-opacity:1" id="path3787" inkscape:connector-curvature="0"></path><path d="m 210.816,198.935 34.479,0" style="fill:none;stroke:#393939;stroke-width:0.5;stroke-linecap:round;stroke-linejoin:round;stroke-miterlimit:4;stroke-dasharray:none;stroke-opacity:1" id="path3789" inkscape:connector-curvature="0"></path><path d="m 210.788,210.614 34.507,0" style="fill:none;stroke:#393939;stroke-width:0.5;stroke-linecap:round;stroke-linejoin:round;stroke-miterlimit:4;stroke-dasharray:none;stroke-opacity:1" id="path3791" inkscape:connector-curvature="0"></path><path d="m 210.795,222.331 34.5,0" style="fill:none;stroke:#393939;stroke-width:0.5;stroke-linecap:round;stroke-linejoin:round;stroke-miterlimit:4;stroke-dasharray:none;stroke-opacity:1" id="path3793" inkscape:connector-curvature="0"></path><path d="m 165.661,234.009 79.634,0" style="fill:none;stroke:#393939;stroke-width:0.5;stroke-linecap:round;stroke-linejoin:round;stroke-miterlimit:4;stroke-dasharray:none;stroke-opacity:1" id="path3795" inkscape:connector-curvature="0"></path><path d="m 165.661,245.729 79.634,0" style="fill:none;stroke:#393939;stroke-width:0.5;stroke-linecap:round;stroke-linejoin:round;stroke-miterlimit:4;stroke-dasharray:none;stroke-opacity:1" id="path3797" inkscape:connector-curvature="0"></path><path d="m 165.773,257.408 79.522,0" style="fill:none;stroke:#393939;stroke-width:0.5;stroke-linecap:round;stroke-linejoin:round;stroke-miterlimit:4;stroke-dasharray:none;stroke-opacity:1" id="path3799" inkscape:connector-curvature="0"></path><path d="m 233.796,269.125 0,-81.23" style="fill:none;stroke:#393939;stroke-width:0.5;stroke-linecap:round;stroke-linejoin:round;stroke-miterlimit:4;stroke-dasharray:none;stroke-opacity:1" id="path3801" inkscape:connector-curvature="0"></path><path d="m 222.294,269.125 0,-81.287" style="fill:none;stroke:#393939;stroke-width:0.5;stroke-linecap:round;stroke-linejoin:round;stroke-miterlimit:4;stroke-dasharray:none;stroke-opacity:1" id="path3803" inkscape:connector-curvature="0"></path><path d="m 210.795,269.125 0,-46.725" style="fill:none;stroke:#393939;stroke-width:0.5;stroke-linecap:round;stroke-linejoin:round;stroke-miterlimit:4;stroke-dasharray:none;stroke-opacity:1" id="path3805" inkscape:connector-curvature="0"></path><path d="m 199.275,269.125 0,-35.028" style="fill:none;stroke:#393939;stroke-width:0.5;stroke-linecap:round;stroke-linejoin:round;stroke-miterlimit:4;stroke-dasharray:none;stroke-opacity:1" id="path3807" inkscape:connector-curvature="0"></path><path d="m 187.777,269.125 0,-34.964" style="fill:none;stroke:#393939;stroke-width:0.5;stroke-linecap:round;stroke-linejoin:round;stroke-miterlimit:4;stroke-dasharray:none;stroke-opacity:1" id="path3809" inkscape:connector-curvature="0"></path><path d="m 176.279,269.125 0,-35.081" style="fill:none;stroke:#393939;stroke-width:0.5;stroke-linecap:round;stroke-linejoin:round;stroke-miterlimit:4;stroke-dasharray:none;stroke-opacity:1" id="path3811" inkscape:connector-curvature="0"></path><path d="m 176.332,187.208 -11.178,0 0,11.534 11.178,0 0,-11.534 z" style="fill:#30383c;fill-opacity:1;fill-rule:nonzero;stroke:none" id="path3813" inkscape:connector-curvature="0"></path><path d="m 176.332,187.208 -11.179,0 0,11.533 11.179,0 0,-11.533 z" style="fill:none;stroke:#000000;stroke-width:0.935;stroke-linecap:round;stroke-linejoin:round;stroke-miterlimit:4;stroke-dasharray:none;stroke-opacity:1" id="path3815" inkscape:connector-curvature="0"></path><path d="m 187.776,187.208 -11.178,0 0,11.534 11.178,0 0,-11.534 z" style="fill:#0063b5;fill-opacity:1;fill-rule:nonzero;stroke:none" id="path3817" inkscape:connector-curvature="0"></path><path d="m 187.776,187.208 -11.178,0 0,11.533 11.178,0 0,-11.533 z" style="fill:none;stroke:#000000;stroke-width:0.935;stroke-linecap:round;stroke-linejoin:round;stroke-miterlimit:4;stroke-dasharray:none;stroke-opacity:1" id="path3819" inkscape:connector-curvature="0"></path><path d="m 199.219,187.208 -11.182,0 0,11.534 11.182,0 0,-11.534 z" style="fill:#009966;fill-opacity:1;fill-rule:nonzero;stroke:none" id="path3821" inkscape:connector-curvature="0"></path><path d="m 199.219,187.208 -11.182,0 0,11.533 11.182,0 0,-11.533 z" style="fill:none;stroke:#000000;stroke-width:0.935;stroke-linecap:butt;stroke-linejoin:miter;stroke-miterlimit:4;stroke-dasharray:none;stroke-opacity:1" id="path3823" inkscape:connector-curvature="0"></path><path d="m 210.659,187.204 -11.177,0 0,11.538 11.177,0 0,-11.538 z" style="fill:#54ad68;fill-opacity:1;fill-rule:nonzero;stroke:none" id="path3825" inkscape:connector-curvature="0"></path><path d="m 210.659,187.204 -11.177,0 0,11.537 11.177,0 0,-11.537 z" style="fill:none;stroke:#000000;stroke-width:0.935;stroke-linecap:butt;stroke-linejoin:miter;stroke-miterlimit:4;stroke-dasharray:none;stroke-opacity:1" id="path3827" inkscape:connector-curvature="0"></path><path d="m 176.332,198.841 -11.178,0 0,11.538 11.178,0 0,-11.538 z" style="fill:#0063b5;fill-opacity:1;fill-rule:nonzero;stroke:none" id="path3829" inkscape:connector-curvature="0"></path><path d="m 176.332,198.841 -11.179,0 0,11.538 11.179,0 0,-11.538 z" style="fill:none;stroke:#000000;stroke-width:0.935;stroke-linecap:round;stroke-linejoin:round;stroke-miterlimit:4;stroke-dasharray:none;stroke-opacity:1" id="path3831" inkscape:connector-curvature="0"></path><path d="m 187.776,198.841 -11.178,0 0,11.538 11.178,0 0,-11.538 z" style="fill:#f72d1e;fill-opacity:1;fill-rule:nonzero;stroke:none" id="path3833" inkscape:connector-curvature="0"></path><path d="m 187.776,198.841 -11.178,0 0,11.538 11.178,0 0,-11.538 z" style="fill:none;stroke:#000000;stroke-width:0.935;stroke-linecap:round;stroke-linejoin:round;stroke-miterlimit:4;stroke-dasharray:none;stroke-opacity:1" id="path3835" inkscape:connector-curvature="0"></path><path d="m 199.219,198.841 -11.182,0 0,11.538 11.182,0 0,-11.538 z" style="fill:#f06c2e;fill-opacity:1;fill-rule:nonzero;stroke:none" id="path3837" inkscape:connector-curvature="0"></path><path d="m 199.219,198.841 -11.182,0 0,11.538 11.182,0 0,-11.538 z" style="fill:none;stroke:#000000;stroke-width:0.935;stroke-linecap:butt;stroke-linejoin:miter;stroke-miterlimit:4;stroke-dasharray:none;stroke-opacity:1" id="path3839" inkscape:connector-curvature="0"></path><path d="m 210.659,198.841 -11.177,0 0,11.534 11.177,0 0,-11.534 z" style="fill:#f8bf25;fill-opacity:1;fill-rule:nonzero;stroke:none" id="path3841" inkscape:connector-curvature="0"></path><path d="m 210.659,198.841 -11.177,0 0,11.534 11.177,0 0,-11.534 z" style="fill:none;stroke:#000000;stroke-width:0.935;stroke-linecap:butt;stroke-linejoin:miter;stroke-miterlimit:4;stroke-dasharray:none;stroke-opacity:1" id="path3843" inkscape:connector-curvature="0"></path><path d="m 176.332,210.571 -11.178,0 0,11.538 11.178,0 0,-11.538 z" style="fill:#009966;fill-opacity:1;fill-rule:nonzero;stroke:none" id="path3845" inkscape:connector-curvature="0"></path><path d="m 176.332,210.571 -11.179,0 0,11.538 11.179,0 0,-11.538 z" style="fill:none;stroke:#000000;stroke-width:0.935;stroke-linecap:butt;stroke-linejoin:miter;stroke-miterlimit:4;stroke-dasharray:none;stroke-opacity:1" id="path3847" inkscape:connector-curvature="0"></path><path d="m 187.776,210.571 -11.178,0 0,11.538 11.178,0 0,-11.538 z" style="fill:#f06c2e;fill-opacity:1;fill-rule:nonzero;stroke:none" id="path3849" inkscape:connector-curvature="0"></path><path d="m 187.776,210.571 -11.178,0 0,11.538 11.178,0 0,-11.538 z" style="fill:none;stroke:#000000;stroke-width:0.935;stroke-linecap:butt;stroke-linejoin:miter;stroke-miterlimit:4;stroke-dasharray:none;stroke-opacity:1" id="path3851" inkscape:connector-curvature="0"></path><path d="m 199.219,210.571 -11.182,0 0,11.538 11.182,0 0,-11.538 z" style="fill:#f8bf25;fill-opacity:1;fill-rule:nonzero;stroke:none" id="path3853" inkscape:connector-curvature="0"></path><path d="m 199.219,210.571 -11.182,0 0,11.538 11.182,0 0,-11.538 z" style="fill:none;stroke:#000000;stroke-width:0.935;stroke-linecap:butt;stroke-linejoin:miter;stroke-miterlimit:4;stroke-dasharray:none;stroke-opacity:1" id="path3855" inkscape:connector-curvature="0"></path><path d="m 176.332,222.396 -11.178,0 0,11.534 11.178,0 0,-11.534 z" style="fill:#54ad68;fill-opacity:1;fill-rule:nonzero;stroke:none" id="path3857" inkscape:connector-curvature="0"></path><path d="m 176.332,222.396 -11.179,0 0,11.535 11.179,0 0,-11.535 z" style="fill:none;stroke:#000000;stroke-width:0.935;stroke-linecap:butt;stroke-linejoin:miter;stroke-miterlimit:4;stroke-dasharray:none;stroke-opacity:1" id="path3859" inkscape:connector-curvature="0"></path><path d="m 187.776,222.396 -11.178,0 0,11.534 11.178,0 0,-11.534 z" style="fill:#f8bf25;fill-opacity:1;fill-rule:nonzero;stroke:none" id="path3861" inkscape:connector-curvature="0"></path><path d="m 187.776,222.396 -11.178,0 0,11.535 11.178,0 0,-11.535 z" style="fill:none;stroke:#000000;stroke-width:0.935;stroke-linecap:butt;stroke-linejoin:miter;stroke-miterlimit:4;stroke-dasharray:none;stroke-opacity:1" id="path3863" inkscape:connector-curvature="0"></path><path d="m 199.194,222.399 -11.178,0 0,11.535 11.178,0 0,-11.535 z" style="fill:#f0d98a;fill-opacity:1;fill-rule:nonzero;stroke:none" id="path3865" inkscape:connector-curvature="0"></path><path d="m 199.194,222.399 -11.177,0 0,11.535 11.177,0 0,-11.535 z" style="fill:none;stroke:#000000;stroke-width:0.935;stroke-linecap:butt;stroke-linejoin:miter;stroke-miterlimit:4;stroke-dasharray:none;stroke-opacity:1" id="path3867" inkscape:connector-curvature="0"></path><path d="m 210.639,210.523 -11.182,0 0,11.539 11.182,0 0,-11.539 z" style="fill:#f0d98a;fill-opacity:1;fill-rule:nonzero;stroke:none" id="path3869" inkscape:connector-curvature="0"></path><path d="m 210.639,210.523 -11.182,0 0,11.539 11.182,0 0,-11.539 z" style="fill:none;stroke:#000000;stroke-width:0.935;stroke-linecap:butt;stroke-linejoin:miter;stroke-miterlimit:4;stroke-dasharray:none;stroke-opacity:1" id="path3871" inkscape:connector-curvature="0"></path><path d="m 210.621,222.428 -11.182,0 0,11.539 11.182,0 0,-11.539 z" style="fill:#f0d98a;fill-opacity:1;fill-rule:nonzero;stroke:none" id="path3873" inkscape:connector-curvature="0"></path><path d="m 210.621,222.428 -11.183,0 0,11.539 11.183,0 0,-11.539 z" style="fill:none;stroke:#000000;stroke-width:0.935;stroke-linecap:butt;stroke-linejoin:miter;stroke-miterlimit:4;stroke-dasharray:none;stroke-opacity:1" id="path3875" inkscape:connector-curvature="0"></path></g> </g> </g> </svg>